HIERARCHY
ROOT Hips
{
    OFFSET   0.000000   0.000000   0.000000
    CHANNELS 6 Xposition Yposition Zposition Zrotation Xrotation Yrotation
    JOINT Chest
    {
        OFFSET   0.000000   8.007230   0.000000
        CHANNELS 3 Zrotation Xrotation Yrotation
        JOINT Chest2
        {
            OFFSET   0.000000  22.077100   0.000000
            CHANNELS 3 Zrotation Xrotation Yrotation
            JOINT Neck
            {
                OFFSET   0.000000  23.254700   0.000000
                CHANNELS 3 Zrotation Xrotation Yrotation
                JOINT Head
                {
                    OFFSET   0.000010  14.370000   1.956610
                    CHANNELS 3 Zrotation Xrotation Yrotation
                    End Site
                    {
                        OFFSET   0.000000  19.566000   0.000000
                    }
                }
            }
            JOINT LeftCollar
            {
                OFFSET   3.911900  19.017000  -0.467063
                CHANNELS 3 Zrotation Xrotation Yrotation
                JOINT LeftShoulder
                {
                    OFFSET  10.383700   0.000000   0.000000
                    CHANNELS 3 Zrotation Xrotation Yrotation
                    JOINT LeftElbow
                    {
                        OFFSET  26.662100   0.001671   0.000522
                        CHANNELS 3 Zrotation Xrotation Yrotation
                        JOINT LeftWrist
                        {
                            OFFSET  28.869000   0.000037  -0.000114
                            CHANNELS 3 Zrotation Xrotation Yrotation
                            JOINT LeftFinger0
                            {
                                OFFSET   2.044650  -2.323450   3.252850
                                CHANNELS 3 Zrotation Xrotation Yrotation
                                JOINT LeftFinger01
                                {
                                    OFFSET   3.088140   0.000000   0.000000
                                    CHANNELS 3 Zrotation Xrotation Yrotation
                                    JOINT LeftFinger02
                                    {
                                        OFFSET   2.639460   0.000000   0.000000
                                        CHANNELS 3 Zrotation Xrotation Yrotation
                                        End Site
                                        {
                                            OFFSET   2.582190   0.000000   0.000000
                                        }
                                    }
                                }
                            }
                            JOINT LeftFinger1
                            {
                                OFFSET   8.364480   0.000000   3.252850
                                CHANNELS 3 Zrotation Xrotation Yrotation
                                JOINT LeftFinger11
                                {
                                    OFFSET   4.646930   0.000000   0.000000
                                    CHANNELS 3 Zrotation Xrotation Yrotation
                                    JOINT LeftFinger12
                                    {
                                        OFFSET   2.323470   0.000000   0.000000
                                        CHANNELS 3 Zrotation Xrotation Yrotation
                                        End Site
                                        {
                                            OFFSET   2.273050   0.000000   0.000000
                                        }
                                    }
                                }
                            }
                            JOINT LeftFinger2
                            {
                                OFFSET   8.364490   0.000016   1.078090
                                CHANNELS 3 Zrotation Xrotation Yrotation
                                JOINT LeftFinger21
                                {
                                    OFFSET   5.111620   0.000000   0.000000
                                    CHANNELS 3 Zrotation Xrotation Yrotation
                                    JOINT LeftFinger22
                                    {
                                        OFFSET   2.788150   0.000013   0.000000
                                        CHANNELS 3 Zrotation Xrotation Yrotation
                                        End Site
                                        {
                                            OFFSET   2.727660   0.000000   0.000000
                                        }
                                    }
                                }
                            }
                            JOINT LeftFinger3
                            {
                                OFFSET   7.899780   0.000016  -1.078090
                                CHANNELS 3 Zrotation Xrotation Yrotation
                                JOINT LeftFinger31
                                {
                                    OFFSET   4.646930   0.000000   0.000000
                                    CHANNELS 3 Zrotation Xrotation Yrotation
                                    JOINT LeftFinger32
                                    {
                                        OFFSET   2.323470   0.000000   0.000000
                                        CHANNELS 3 Zrotation Xrotation Yrotation
                                        End Site
                                        {
                                            OFFSET   2.273050   0.000000   0.000000
                                        }
                                    }
                                }
                            }
                            JOINT LeftFinger4
                            {
                                OFFSET   7.435080   0.000000  -3.252850
                                CHANNELS 3 Zrotation Xrotation Yrotation
                                JOINT LeftFinger41
                                {
                                    OFFSET   3.717550   0.000000   0.000000
                                    CHANNELS 3 Zrotation Xrotation Yrotation
                                    JOINT LeftFinger42
                                    {
                                        OFFSET   1.858760   0.000000   0.000000
                                        CHANNELS 3 Zrotation Xrotation Yrotation
                                        End Site
                                        {
                                            OFFSET   1.818440   0.000000   0.000000
                                        }
                                    }
                                }
                            }
                        }
                    }
                }
            }
            JOINT RightCollar
            {
                OFFSET  -3.911900  19.017000  -0.467064
                CHANNELS 3 Zrotation Xrotation Yrotation
                JOINT RightShoulder
                {
                    OFFSET -10.383700   0.000000   0.000000
                    CHANNELS 3 Zrotation Xrotation Yrotation
                    JOINT RightElbow
                    {
                        OFFSET -26.662100   0.001633   0.000260
                        CHANNELS 3 Zrotation Xrotation Yrotation
                        JOINT RightWrist
                        {
                            OFFSET -28.869000  -0.000045  -0.000080
                            CHANNELS 3 Zrotation Xrotation Yrotation
                            JOINT RightFinger0
                            {
                                OFFSET  -2.044660  -2.323490   3.252850
                                CHANNELS 3 Zrotation Xrotation Yrotation
                                JOINT RightFinger01
                                {
                                    OFFSET  -3.088140   0.000000   0.000000
                                    CHANNELS 3 Zrotation Xrotation Yrotation
                                    JOINT RightFinger02
                                    {
                                        OFFSET  -2.639450   0.000000   0.000000
                                        CHANNELS 3 Zrotation Xrotation Yrotation
                                        End Site
                                        {
                                            OFFSET  -2.582190   0.000000   0.000000
                                        }
                                    }
                                }
                            }
                            JOINT RightFinger1
                            {
                                OFFSET  -8.364480   0.000000   3.252850
                                CHANNELS 3 Zrotation Xrotation Yrotation
                                JOINT RightFinger11
                                {
                                    OFFSET  -4.646920   0.000000   0.000000
                                    CHANNELS 3 Zrotation Xrotation Yrotation
                                    JOINT RightFinger12
                                    {
                                        OFFSET  -2.323470   0.000000   0.000000
                                        CHANNELS 3 Zrotation Xrotation Yrotation
                                        End Site
                                        {
                                            OFFSET  -2.273050   0.000000   0.000000
                                        }
                                    }
                                }
                            }
                            JOINT RightFinger2
                            {
                                OFFSET  -8.364480   0.000000   1.078090
                                CHANNELS 3 Zrotation Xrotation Yrotation
                                JOINT RightFinger21
                                {
                                    OFFSET  -5.111610   0.000000   0.000000
                                    CHANNELS 3 Zrotation Xrotation Yrotation
                                    JOINT RightFinger22
                                    {
                                        OFFSET  -2.788160   0.000000   0.000000
                                        CHANNELS 3 Zrotation Xrotation Yrotation
                                        End Site
                                        {
                                            OFFSET  -2.727660   0.000000   0.000000
                                        }
                                    }
                                }
                            }
                            JOINT RightFinger3
                            {
                                OFFSET  -7.899780   0.000000  -1.078090
                                CHANNELS 3 Zrotation Xrotation Yrotation
                                JOINT RightFinger31
                                {
                                    OFFSET  -4.646930   0.000000   0.000000
                                    CHANNELS 3 Zrotation Xrotation Yrotation
                                    JOINT RightFinger32
                                    {
                                        OFFSET  -2.323470   0.000000   0.000000
                                        CHANNELS 3 Zrotation Xrotation Yrotation
                                        End Site
                                        {
                                            OFFSET  -2.273050   0.000000   0.000000
                                        }
                                    }
                                }
                            }
                            JOINT RightFinger4
                            {
                                OFFSET  -7.435090   0.000000  -3.252850
                                CHANNELS 3 Zrotation Xrotation Yrotation
                                JOINT RightFinger41
                                {
                                    OFFSET  -3.717550   0.000000   0.000000
                                    CHANNELS 3 Zrotation Xrotation Yrotation
                                    JOINT RightFinger42
                                    {
                                        OFFSET  -1.858760   0.000000   0.000000
                                        CHANNELS 3 Zrotation Xrotation Yrotation
                                        End Site
                                        {
                                            OFFSET  -1.818440   0.000000   0.000000
                                        }
                                    }
                                }
                            }
                        }
                    }
                }
            }
        }
    }
    JOINT LeftHip
    {
        OFFSET   9.782990   0.000000   0.000000
        CHANNELS 3 Zrotation Xrotation Yrotation
        JOINT LeftKnee
        {
            OFFSET  -0.000063 -41.789100   0.001657
            CHANNELS 3 Zrotation Xrotation Yrotation
            JOINT LeftAnkle
            {
                OFFSET   0.000078 -41.133200  -0.000113
                CHANNELS 3 Zrotation Xrotation Yrotation
                JOINT LeftToe
                {
                    OFFSET   0.000000  -6.358970  14.674500
                    CHANNELS 3 Zrotation Xrotation Yrotation
                    End Site
                    {
                        OFFSET   0.000000   0.000000   3.913200
                    }
                }
            }
        }
    }
    JOINT RightHip
    {
        OFFSET  -9.782990   0.000000   0.000000
        CHANNELS 3 Zrotation Xrotation Yrotation
        JOINT RightKnee
        {
            OFFSET   0.000053 -41.789200   0.000277
            CHANNELS 3 Zrotation Xrotation Yrotation
            JOINT RightAnkle
            {
                OFFSET   0.000030 -41.133200  -0.000150
                CHANNELS 3 Zrotation Xrotation Yrotation
                JOINT RightToe
                {
                    OFFSET   0.000000  -6.358960  14.674500
                    CHANNELS 3 Zrotation Xrotation Yrotation
                    End Site
                    {
                        OFFSET   0.000000   0.000000   3.913200
                    }
                }
            }
        }
    }
}
MOTION
Frames: 5
Frame Time:   0.016667
 -0.109411  89.583700   0.472786  -1.968930  -6.143410  -2.194520   0.376923   3.428010  -0.387947   0.779245   6.853330  -0.800674   0.786387  -0.647882   0.008495   1.292340  -1.313150   1.705930  -3.673580  -1.379710   2.928880 -74.246100  13.920900  -0.277645  -1.373410  -5.706960 -11.248700   9.562450  -9.151960   0.695800  40.400700  23.753600 -60.306100 -20.302200   0.000000   0.002548  -5.151130   0.001555  -0.000000 -23.389600   4.155830  -9.524440 -19.419900   0.008199   0.000834 -13.593900   0.011867   0.000458 -25.996000  -0.322358   0.678146 -25.997900  -0.000703  -0.001172 -17.314600   0.011032  -0.000824 -25.275500  -0.313944   0.682251 -25.277400  -0.009926   0.000364 -16.834700   0.000567   0.000217 -24.768000  -0.307875   0.685080 -37.154700  -0.004772   0.004414 -24.745000  -0.005993  -0.009950   7.254080   1.203240   3.851800  71.523500   2.124930  -1.708060   1.016240  -8.642410   5.176710  -8.331000  -0.986971   6.419680 -44.151400  30.350100  67.353000   6.357400  -0.001153  -0.002529  -1.821320   0.001565  -0.000774  14.504100   3.205650  12.197500  12.147400  -0.010012   0.000827   8.503130  -0.002818  -0.003241  25.103500   4.543710   9.591860  25.485100  -0.000870  -0.001556  16.973100   0.000958   0.006236  20.059400   0.880314   2.412750  20.077900   0.000385   0.000734  13.371900  -0.000245  -0.003036  25.569900   0.796966   1.665190  38.372300  -0.003267  -0.006009  25.556000  -0.000567   0.009362   1.170080   7.312060   4.358600   0.919244   0.055226   5.053610  -0.548198  -2.526910   0.775413  -0.000000   0.000000   0.000000   3.770010   4.435100   2.917790  -2.429990   5.876790  -8.683080   0.864720  -5.396210  -2.555190   0.000000   0.000000   0.000000
 -0.109311  89.583700   0.472849  -1.970560  -6.154910  -2.193710   0.377251   3.441620  -0.383086   0.779739   6.880580  -0.791060   0.797676  -0.637493   0.008510   1.310900  -1.292010   1.711440  -3.673410  -1.381510   2.932250 -74.240400  13.942000  -0.301138  -1.375060  -5.710110 -11.258100   9.548590  -9.139900   0.695777  40.425600  23.764200 -60.289800 -20.276800  -0.000000   0.002558  -5.138420   0.001555   0.000000 -23.363600   4.155780  -9.528050 -19.398900   0.008200   0.000835 -13.579200   0.011865   0.000459 -25.977500  -0.321614   0.675915 -25.979400  -0.000708  -0.001170 -17.302300   0.011036  -0.000823 -25.254700  -0.313226   0.680017 -25.256600  -0.009932   0.000366 -16.820800   0.000564   0.000218 -24.743100  -0.307169   0.682856 -37.117400  -0.004772   0.004414 -24.720200  -0.005994  -0.009950   7.258210   1.193900   3.864690  71.497500   2.154120  -1.708130   1.026690  -8.657180   5.154990  -8.275670  -0.975927   6.417010 -44.148200  30.340700  67.366000   6.371270  -0.001112  -0.002532  -1.814380   0.001559  -0.000781  14.525800   3.207820  12.187100  12.165100  -0.010010   0.000873   8.515520  -0.002823  -0.003241  25.114700   4.541600   9.585690  25.494500  -0.000865  -0.001566  16.979300   0.000944   0.006234  20.064800   0.879606   2.408600  20.083300   0.000390   0.000769  13.375500  -0.000247  -0.003044  25.567700   0.793928   1.658990  38.369000  -0.003249  -0.006022  25.553800  -0.000538   0.009353   1.172410   7.311370   4.358570   0.920188   0.070786   5.053460  -0.549900  -2.527530   0.769097   0.000000   0.000000   0.000000   3.777350   4.445200   2.913800  -2.434530   5.876780  -8.682840   0.864732  -5.396400  -2.555200  -0.000000   0.000000   0.000000
 -0.109149  89.583700   0.472954  -1.973990  -6.176500  -2.189740   0.377537   3.466430  -0.376329   0.780080   6.930240  -0.777727   0.818863  -0.618832   0.008531   1.345700  -1.254060   1.716940  -3.672980  -1.385330   2.942850 -74.230300  13.988600  -0.341849  -1.379350  -5.723200 -11.274100   9.521790  -9.127830   0.695753  40.450800  23.774900 -60.273600 -20.251400   0.000000   0.002568  -5.125710   0.001553   0.000000 -23.337300   4.155700  -9.534710 -19.377800   0.008204   0.000842 -13.564500   0.011864   0.000465 -25.959100  -0.320870   0.673685 -25.961000  -0.000720  -0.001163 -17.290000   0.011047  -0.000818 -25.234000  -0.312509   0.677784 -25.235700  -0.009948   0.000372 -16.807000   0.000554   0.000223 -24.718300  -0.306462   0.680632 -37.080100  -0.004772   0.004416 -24.695300  -0.005994  -0.009949   7.266680   1.176290   3.888550  71.452700   2.206400  -1.708230   1.040890  -8.672050   5.124750  -8.164240  -0.959479   6.405350 -44.099700  30.341700  67.393600   6.408160  -0.001045  -0.002556  -1.795930   0.001551  -0.000797  14.568100   3.213370  12.171600  12.199800  -0.010003   0.000975   8.539850  -0.002829  -0.003243  25.127500   4.534830   9.568810  25.507200  -0.000855  -0.001595  16.987800   0.000912   0.006229  20.078000   0.876064   2.395310  20.096300   0.000406   0.000848  13.384100  -0.000255  -0.003065  25.566000   0.784132   1.638680  38.365600  -0.003205  -0.006055  25.551600  -0.000472   0.009332   1.177790   7.310680   4.358500   0.921399   0.094318   5.053250  -0.554520  -2.529610   0.757180  -0.000000   0.000000   0.000000   3.788550   4.465590   2.904650  -2.441230   5.876720  -8.682590   0.864734  -5.396810  -2.555210   0.000000   0.000000   0.000000
 -0.109028  89.583600   0.473039  -1.978240  -6.198980  -2.181000   0.377336   3.490990  -0.373974   0.779736   6.979360  -0.773184   0.839836  -0.601571   0.008542   1.380150  -1.219000   1.715710  -3.673170  -1.390530   2.963510 -74.215700  14.054300  -0.377837  -1.386320  -5.753330 -11.287200   9.493170  -9.129040   0.693164  40.438700  23.793000 -60.317700 -20.272300   0.000000   0.002563  -5.136150   0.001547  -0.000000 -23.348700   4.160260  -9.541340 -19.387700   0.008211   0.000857 -13.571400   0.011866   0.000475 -25.968500  -0.326907   0.679370 -25.970400  -0.000735  -0.001151 -17.296300   0.011063  -0.000810 -25.240800  -0.318359   0.683520 -25.242600  -0.009974   0.000383 -16.811600   0.000535   0.000232 -24.723400  -0.312210   0.686402 -37.087900  -0.004776   0.004421 -24.700500  -0.005996  -0.009948   7.276680   1.157150   3.913800  71.417100   2.238400  -1.707730   1.042910  -8.658190   5.112380  -8.048210  -0.952798   6.387540 -44.118800  30.403600  67.467500   6.457070  -0.000986  -0.002613  -1.771480   0.001548  -0.000814  14.628900   3.224340  12.161600  12.250300  -0.009992   0.001119   8.575180  -0.002826  -0.003248  25.131500   4.522640   9.543700  25.509500  -0.000840  -0.001644  16.989300   0.000868   0.006222  20.087400   0.868847   2.374620  20.105300   0.000431   0.000963  13.390000  -0.000271  -0.003099  25.567100   0.767764   1.605160  38.366100  -0.003138  -0.006104  25.551900  -0.000380   0.009300   1.184230   7.322610   4.358420   0.921523   0.110641   5.053170  -0.562799  -2.534790   0.744977  -0.000000   0.000000   0.000000   3.795030   4.489060   2.891330  -2.445500   5.874710  -8.683580   0.862577  -5.397520  -2.555220  -0.000000   0.000000  -0.000000
 -0.108904  89.583600   0.473124  -1.983390  -6.224180  -2.169280   0.375911   3.517650  -0.372790   0.776999   7.032690  -0.770931   0.865570  -0.581709   0.008547   1.422440  -1.178700   1.707220  -3.673910  -1.395750   2.986640 -74.195700  14.124500  -0.415387  -1.393930  -5.786490 -11.300700   9.457340  -9.130270   0.687951  40.414900  23.819700 -60.391900 -20.309400   0.000000   0.002554  -5.154680   0.001538  -0.000000 -23.368200   4.168260  -9.549010 -19.404400   0.008220   0.000878 -13.583100   0.011867   0.000490 -25.984100  -0.335726   0.688743 -25.986100  -0.000755  -0.001135 -17.306800   0.011086  -0.000801 -25.251900  -0.326896   0.692979 -25.253800  -0.010009   0.000398 -16.819100   0.000510   0.000243 -24.732100  -0.320594   0.695916 -37.101100  -0.004780   0.004429 -24.709300  -0.005998  -0.009946   7.288830   1.137090   3.939570  71.373600   2.309650  -1.707270   1.038700  -8.560070   5.107390  -7.882260  -0.943742   6.347710 -44.197500  30.565400  67.684700   6.541640  -0.000951  -0.002684  -1.729190   0.001545  -0.000834  14.669000   3.232690  12.156800  12.283700  -0.009979   0.001279   8.598590  -0.002822  -0.003254  25.137200   4.506440   9.506240  25.511800  -0.000821  -0.001707  16.990900   0.000813   0.006213  20.120700   0.857632   2.339600  20.137900   0.000465   0.001090  13.411800  -0.000292  -0.003139  25.569700   0.742895   1.552350  38.369100  -0.003059  -0.006164  25.553800  -0.000267   0.009260   1.191620   7.348530   4.358540   0.921381   0.118993   5.053110  -0.571551  -2.538530   0.730610   0.000000   0.000000  -0.000000   3.800810   4.517390   2.876420  -2.448030   5.868690  -8.686590   0.859460  -5.398000  -2.555240   0.000000   0.000000   0.000000
